# xmcd
#
# Track frame offsets:
#	150
#	15336
#	30471
#	50548
#	67576
#	82300
#	102755
#	118533
#	132028
#	147086
#	161212
#	178094
#	193939
#	206647
#	223113
#
# Disc length: 3207 seconds
#
# Revision: 1
# Processed by: cddbd v1.5.2PL0 Copyright (c) Steve Scherf et al.
# Submitted via: audiograbber 1.83.01
#
DISCID=d20c850f
DTITLE=Various Artist - All The... Country [Disc 2]
DYEAR=2012
DGENRE=Country
TTITLE0=Uncle Kracker - Smile
TTITLE1=Big and Rich - Save A Horse (Ride A Cowboy)
TTITLE2=Dwight Yoakam - A Thousand Miles From Nowhere
TTITLE3=Travis Tritt - Anymore
TTITLE4=Olivia Newton-John - Banks Of The Ohio
TTITLE5=Kenny Rogers - Coward Of The County
TTITLE6=Maria Muldaur - My Tennessee Mountain Home
TTITLE7=John Anderson - Swingin'
TTITLE8=Nitty Gritty Dirt Band - Fishin' In The Dark
TTITLE9=Eddie Rabbitt - I Love A Rainy Night
TTITLE10=Tony Joe White - My Kind Of Woman
TTITLE11=Johnny Lee - Lookin' For Love
TTITLE12=Holly Dunn - You Really Had Me Going
TTITLE13=Paul Brandt - I Do
TTITLE14=The Wilkinsons - 26 (Cents Sign)
EXTD=
EXTT0=
EXTT1=
EXTT2=
EXTT3=
EXTT4=
EXTT5=
EXTT6=
EXTT7=
EXTT8=
EXTT9=
EXTT10=
EXTT11=
EXTT12=
EXTT13=
EXTT14=
PLAYORDER=
